<svg id="Layer_1" data-name="Layer 1" xmlns="http://www.w3.org/2000/svg" width="170" height="170" viewBox="0 0 170 170">
  <defs>
    <style>
      .cls-1 {
        fill: #d8d9ff;
      }

      .cls-2 {
        fill: #635ec3;
      }

      .cls-3 {
        fill: #fff;
      }
    </style>
  </defs>
  <title>double</title>
  <g>
    <g>
      <path class="cls-1" d="M136.94,76.36l-32.73-12L33.06,64V33.89a8.62,8.62,0,0,1,8.63-8.64h84.47A10.78,10.78,0,0,1,136.94,36Z"/>
      <path class="cls-2" d="M126.31,23.5H43.69A12.4,12.4,0,0,0,31.31,35.89V157.61A12.4,12.4,0,0,0,43.69,170h82.62a12.4,12.4,0,0,0,12.38-12.39V35.89A12.4,12.4,0,0,0,126.31,23.5Zm8.87,134.06a8.91,8.91,0,0,1-8.87,8.88H43.69a8.91,8.91,0,0,1-8.87-8.88V65.78H101a17.62,17.62,0,0,1,2.83.25l21.89,21a1.88,1.88,0,0,0,1.22.49h.1a1.62,1.62,0,0,0,1.22-.58l7-8ZM112,69.05l20.09,8.09-5.31,6.1Zm23.21,5.56L110,64.46a19.19,19.19,0,0,0-4.59-1.7h0a17.58,17.58,0,0,0-4-.49H34.82V35.89A8.91,8.91,0,0,1,43.69,27h82.62a8.91,8.91,0,0,1,8.87,8.88V74.61Z"/>
    </g>
    <g>
      <path class="cls-3" d="M126.45,36H92.36a4.69,4.69,0,0,0-4.68,4.68v9.61A4.68,4.68,0,0,0,92.36,55h34.09a4.68,4.68,0,0,0,4.69-4.68V40.67A4.68,4.68,0,0,0,126.45,36Zm-49,0H43.35a4.69,4.69,0,0,0-4.68,4.68v9.61A4.68,4.68,0,0,0,43.35,55H77.44a4.67,4.67,0,0,0,4.68-4.68V40.67A4.67,4.67,0,0,0,77.44,36Z"/>
      <path class="cls-2" d="M126.45,34.28H92.36A6.4,6.4,0,0,0,86,40.67v9.6a6.41,6.41,0,0,0,6.38,6.39h34.09a6.41,6.41,0,0,0,6.39-6.39v-9.6A6.34,6.34,0,0,0,126.45,34.28Zm2.93,16a2.94,2.94,0,0,1-2.93,2.93H92.36a2.93,2.93,0,0,1-2.92-2.93v-9.6a2.93,2.93,0,0,1,2.92-2.93h34.09a2.94,2.94,0,0,1,2.93,2.93Zm-51.94-16H43.35A6.41,6.41,0,0,0,37,40.67v9.6a6.41,6.41,0,0,0,6.39,6.39H77.44a6.41,6.41,0,0,0,6.39-6.39v-9.6A6.34,6.34,0,0,0,77.44,34.28Zm2.93,16a2.94,2.94,0,0,1-2.93,2.93H43.35a2.93,2.93,0,0,1-2.92-2.93v-9.6a2.93,2.93,0,0,1,2.92-2.93H77.44a2.94,2.94,0,0,1,2.93,2.93Z"/>
    </g>
  </g>
</svg>
