<svg id="Layer_1" data-name="Layer 1" xmlns="http://www.w3.org/2000/svg" width="170" height="170" viewBox="0 0 170 170">
  <defs>
    <style>
      .cls-1 {
        fill: #d8d9ff;
      }

      .cls-2 {
        fill: #635ec3;
      }

      .cls-3 {
        fill: #fff;
      }
    </style>
  </defs>
  <title>king</title>
  <g>
    <g>
      <path class="cls-1" d="M154.25,64.17l-32.72-12-105.78-.3V21.69a8.62,8.62,0,0,1,8.63-8.63H143.47a10.78,10.78,0,0,1,10.78,10.78Z"/>
      <path class="cls-2" d="M143.62,11.31H26.38A12.4,12.4,0,0,0,14,23.69V157.61A12.41,12.41,0,0,0,26.38,170H143.62A12.41,12.41,0,0,0,156,157.61V23.69A12.4,12.4,0,0,0,143.62,11.31Zm8.88,146.25a8.91,8.91,0,0,1-8.88,8.88H26.38a8.91,8.91,0,0,1-8.88-8.88v-104H118.26a18.73,18.73,0,0,1,2.83.24l21.9,21a1.88,1.88,0,0,0,1.22.49h.09a1.62,1.62,0,0,0,1.22-.58l7-8.05ZM129.28,56.86,149.37,65l-5.31,6.1Zm23.22,5.56L127.33,52.27a19.12,19.12,0,0,0-4.58-1.7h0a17.16,17.16,0,0,0-4-.49H17.5V23.69a8.91,8.91,0,0,1,8.88-8.87H143.62a8.91,8.91,0,0,1,8.88,8.87Z"/>
    </g>
    <g>
      <path class="cls-3" d="M73.15,23.6H39a4.68,4.68,0,0,0-4.68,4.68v9.61A4.69,4.69,0,0,0,39,42.57H73.1a4.68,4.68,0,0,0,4.68-4.68V28.23A4.65,4.65,0,0,0,73.15,23.6Zm58.72,0H97.78a4.67,4.67,0,0,0-4.68,4.68v9.61a4.68,4.68,0,0,0,4.68,4.68h34.09a4.69,4.69,0,0,0,4.68-4.68V28.23A4.67,4.67,0,0,0,131.87,23.6Z"/>
      <path class="cls-2" d="M73.15,21.84H39a6.41,6.41,0,0,0-6.39,6.39v9.61A6.41,6.41,0,0,0,39,44.23H73.1a6.41,6.41,0,0,0,6.39-6.39V28.23A6.34,6.34,0,0,0,73.15,21.84Zm2.88,16a2.93,2.93,0,0,1-2.93,2.92H39a2.92,2.92,0,0,1-2.92-2.92V28.23A2.93,2.93,0,0,1,39,25.3H73.1A2.94,2.94,0,0,1,76,28.23Zm55.84-16H97.78a6.41,6.41,0,0,0-6.39,6.39v9.61a6.41,6.41,0,0,0,6.39,6.39h34.09a6.41,6.41,0,0,0,6.39-6.39V28.23A6.36,6.36,0,0,0,131.87,21.84Zm2.92,16a2.92,2.92,0,0,1-2.92,2.92H97.78a2.93,2.93,0,0,1-2.93-2.92V28.23a2.94,2.94,0,0,1,2.93-2.93h34.09a2.93,2.93,0,0,1,2.92,2.93v9.61Z"/>
    </g>
  </g>
</svg>
