<svg id="Layer_1" data-name="Layer 1" xmlns="http://www.w3.org/2000/svg" width="170" height="170" viewBox="0 0 170 170">
  <defs>
    <style>
      .cls-1 {
        fill: #d8d9ff;
      }

      .cls-2 {
        fill: #635ec3;
      }

      .cls-3 {
        fill: #fff;
      }
    </style>
  </defs>
  <title>king-super</title>
  <g>
    <g>
      <path class="cls-1" d="M162.79,64.17l-32.73-12L7.21,51.83V21.69a8.63,8.63,0,0,1,8.64-8.63H152a10.78,10.78,0,0,1,10.78,10.78Z"/>
      <path class="cls-2" d="M152.15,11.31H17.85A12.4,12.4,0,0,0,5.46,23.69V157.61A12.41,12.41,0,0,0,17.85,170h134.3a12.41,12.41,0,0,0,12.39-12.39V23.69A12.4,12.4,0,0,0,152.15,11.31ZM161,157.56a8.91,8.91,0,0,1-8.88,8.88H17.85A8.91,8.91,0,0,1,9,157.56v-104H126.79a18.62,18.62,0,0,1,2.83.24l21.9,21a1.88,1.88,0,0,0,1.22.49h.1a1.65,1.65,0,0,0,1.22-.58l7-8.05ZM137.82,56.86,157.91,65l-5.32,6.1ZM161,62.42,135.87,52.27a19.35,19.35,0,0,0-4.59-1.7h0a17.09,17.09,0,0,0-4-.49H9V23.69a8.91,8.91,0,0,1,8.88-8.87h134.3A8.91,8.91,0,0,1,161,23.69Z"/>
    </g>
    <g>
      <path class="cls-3" d="M69.25,24.28H35.16A4.68,4.68,0,0,0,30.48,29v9.61a4.68,4.68,0,0,0,4.68,4.68H69.25a4.69,4.69,0,0,0,4.68-4.68V28.91A4.68,4.68,0,0,0,69.25,24.28Zm68.52,0H103.68A4.68,4.68,0,0,0,99,29v9.61a4.68,4.68,0,0,0,4.68,4.68h34.09a4.69,4.69,0,0,0,4.68-4.68V28.91A4.74,4.74,0,0,0,137.77,24.28Z"/>
      <path class="cls-2" d="M69.25,22.52H35.16a6.41,6.41,0,0,0-6.39,6.39v9.61a6.41,6.41,0,0,0,6.39,6.39H69.25a6.41,6.41,0,0,0,6.39-6.39V28.91A6.41,6.41,0,0,0,69.25,22.52Zm2.92,16a2.93,2.93,0,0,1-2.92,2.93H35.16a2.94,2.94,0,0,1-2.93-2.93V28.91A2.93,2.93,0,0,1,35.16,26H69.25a2.92,2.92,0,0,1,2.92,2.92Zm65.6-16H103.68a6.41,6.41,0,0,0-6.39,6.39v9.61a6.41,6.41,0,0,0,6.39,6.39h34.09a6.41,6.41,0,0,0,6.39-6.39V28.91A6.41,6.41,0,0,0,137.77,22.52Zm2.87,16a2.93,2.93,0,0,1-2.92,2.93H103.63a2.94,2.94,0,0,1-2.93-2.93V28.91A2.93,2.93,0,0,1,103.63,26h34.09a2.92,2.92,0,0,1,2.92,2.92Z"/>
    </g>
  </g>
</svg>
