<svg id="Layer_1" data-name="Layer 1" xmlns="http://www.w3.org/2000/svg" width="170" height="170" viewBox="0 0 170 170">
  <defs>
    <style>
      .cls-1 {
        fill: #d8d9ff;
      }

      .cls-2 {
        fill: #635ec3;
      }

      .cls-3 {
        fill: #fff;
      }
    </style>
  </defs>
  <title>quen</title>
  <g>
    <g>
      <path class="cls-1" d="M143,64.17l-32.72-12L27,51.83V21.69a8.62,8.62,0,0,1,8.63-8.63h96.66A10.78,10.78,0,0,1,143,23.84Z"/>
      <path class="cls-2" d="M132.4,11.31H37.6A12.4,12.4,0,0,0,25.21,23.69V157.61A12.41,12.41,0,0,0,37.6,170h94.8a12.41,12.41,0,0,0,12.39-12.39V23.69A12.4,12.4,0,0,0,132.4,11.31Zm8.88,146.25a8.91,8.91,0,0,1-8.88,8.88H37.6a8.91,8.91,0,0,1-8.88-8.88v-104H107a18.62,18.62,0,0,1,2.83.24l21.9,21a1.88,1.88,0,0,0,1.22.49h.1a1.65,1.65,0,0,0,1.22-.58l7-8.05ZM118.07,56.86,138.16,65l-5.32,6.1Zm23.21,5.56L116.11,52.27a19.12,19.12,0,0,0-4.58-1.7h0a17.09,17.09,0,0,0-4-.49H28.72V23.69a8.91,8.91,0,0,1,8.88-8.87h94.8a8.91,8.91,0,0,1,8.88,8.87V62.42Z"/>
    </g>
    <path class="cls-3" d="M126.55,24.23H92.46a4.69,4.69,0,0,0-4.68,4.68v9.61a4.69,4.69,0,0,0,4.68,4.68h34.09a4.68,4.68,0,0,0,4.68-4.68V28.91A4.74,4.74,0,0,0,126.55,24.23Zm-49,0H43.45a4.68,4.68,0,0,0-4.68,4.68v9.61a4.68,4.68,0,0,0,4.68,4.68H77.54a4.69,4.69,0,0,0,4.68-4.68V28.91A4.69,4.69,0,0,0,77.54,24.23Z"/>
    <path class="cls-2" d="M126.55,22.48H92.46a6.41,6.41,0,0,0-6.39,6.38v9.61a6.41,6.41,0,0,0,6.39,6.39h34.09a6.41,6.41,0,0,0,6.39-6.39V28.91A6.42,6.42,0,0,0,126.55,22.48Zm2.93,16a2.94,2.94,0,0,1-2.93,2.93H92.46a2.93,2.93,0,0,1-2.92-2.93V28.91A2.92,2.92,0,0,1,92.46,26h34.09a2.93,2.93,0,0,1,2.93,2.92v9.56Zm-51.94-16H43.45a6.41,6.41,0,0,0-6.39,6.38v9.61a6.41,6.41,0,0,0,6.39,6.39H77.54a6.41,6.41,0,0,0,6.39-6.39V28.91A6.42,6.42,0,0,0,77.54,22.48Zm2.92,16a2.93,2.93,0,0,1-2.92,2.93H43.45a2.94,2.94,0,0,1-2.93-2.93V28.91A2.93,2.93,0,0,1,43.45,26H77.54a2.92,2.92,0,0,1,2.92,2.92Z"/>
  </g>
</svg>
