<svg id="Layer_1" data-name="Layer 1" xmlns="http://www.w3.org/2000/svg" width="170" height="170" viewBox="0 0 170 170">
  <defs>
    <style>
      .cls-1 {
        fill: #d8d9ff;
      }

      .cls-2 {
        fill: #635ec3;
      }

      .cls-3 {
        fill: #fff;
      }
    </style>
  </defs>
  <title>single-long</title>
  <g>
    <g>
      <path class="cls-1" d="M119.14,63.68l-32.73-12-35.55-.29V21.21a8.61,8.61,0,0,1,8.63-8.63h48.87a10.78,10.78,0,0,1,10.78,10.77Z"/>
      <path class="cls-2" d="M108.51,10.82h-47A12.4,12.4,0,0,0,49.11,23.21v134.4A12.4,12.4,0,0,0,61.49,170h47a12.4,12.4,0,0,0,12.38-12.39V23.21A12.4,12.4,0,0,0,108.51,10.82Zm8.87,146.74a8.91,8.91,0,0,1-8.87,8.88h-47a8.91,8.91,0,0,1-8.87-8.88V53.1H83.15a17.62,17.62,0,0,1,2.83.25l21.89,21a1.88,1.88,0,0,0,1.22.49h.1a1.62,1.62,0,0,0,1.22-.58l7-8ZM94.17,56.37l20.09,8.09L109,70.56Zm23.21,5.56L92.22,51.79a19,19,0,0,0-4.59-1.71h0a17.58,17.58,0,0,0-3.95-.49H52.62V23.21a8.91,8.91,0,0,1,8.87-8.88h47a8.91,8.91,0,0,1,8.87,8.88Z"/>
    </g>
    <g>
      <path class="cls-3" d="M102.26,41.84H68.13a4.69,4.69,0,0,1-4.69-4.69V27.6a4.69,4.69,0,0,1,4.69-4.69h34.13A4.69,4.69,0,0,1,107,27.6v9.6A4.75,4.75,0,0,1,102.26,41.84Z"/>
      <path class="cls-2" d="M102.26,43.59H68.13a6.41,6.41,0,0,1-6.39-6.39V27.6a6.4,6.4,0,0,1,6.39-6.39h34.13a6.4,6.4,0,0,1,6.39,6.39v9.6A6.41,6.41,0,0,1,102.26,43.59ZM68.13,24.72a2.94,2.94,0,0,0-2.93,2.92v9.61a2.94,2.94,0,0,0,2.93,2.93h34.13a2.94,2.94,0,0,0,2.93-2.93V27.6a2.94,2.94,0,0,0-2.93-2.93H68.13Z"/>
    </g>
  </g>
</svg>
