<svg id="Layer_1" data-name="Layer 1" xmlns="http://www.w3.org/2000/svg" width="170" height="170" viewBox="0 0 170 170">
  <defs>
    <style>
      .cls-1 {
        fill: #d8d9ff;
      }

      .cls-2 {
        fill: #635ec3;
      }

      .cls-3 {
        fill: #fff;
      }
    </style>
  </defs>
  <title>single</title>
  <g>
    <g>
      <path class="cls-1" d="M119.14,76.36l-32.73-12L50.86,64V33.89a8.62,8.62,0,0,1,8.63-8.64h48.87A10.78,10.78,0,0,1,119.14,36Z"/>
      <path class="cls-2" d="M108.51,23.5h-47A12.4,12.4,0,0,0,49.11,35.89V157.61A12.4,12.4,0,0,0,61.49,170h47a12.4,12.4,0,0,0,12.38-12.39V35.89A12.4,12.4,0,0,0,108.51,23.5Zm8.87,134.06a8.91,8.91,0,0,1-8.87,8.88h-47a8.91,8.91,0,0,1-8.87-8.88V65.78H83.15A17.62,17.62,0,0,1,86,66l21.89,21a1.88,1.88,0,0,0,1.22.49h.1a1.62,1.62,0,0,0,1.22-.58l7-8ZM94.17,69.05l20.09,8.09L109,83.24Zm23.21,5.56L92.22,64.46a19.35,19.35,0,0,0-4.59-1.7h0a17.58,17.58,0,0,0-3.95-.49H52.62V35.89A8.91,8.91,0,0,1,61.49,27h47a8.91,8.91,0,0,1,8.87,8.88Z"/>
    </g>
    <g>
      <path class="cls-3" d="M102.26,54.52H68.13a4.69,4.69,0,0,1-4.69-4.69V40.28a4.69,4.69,0,0,1,4.69-4.69h34.13A4.69,4.69,0,0,1,107,40.28v9.6A4.75,4.75,0,0,1,102.26,54.52Z"/>
      <path class="cls-2" d="M102.26,56.27H68.13a6.41,6.41,0,0,1-6.39-6.39v-9.6a6.4,6.4,0,0,1,6.39-6.39h34.13a6.4,6.4,0,0,1,6.39,6.39v9.6A6.41,6.41,0,0,1,102.26,56.27ZM68.13,37.4a2.94,2.94,0,0,0-2.93,2.92v9.61a2.94,2.94,0,0,0,2.93,2.93h34.13a2.94,2.94,0,0,0,2.93-2.93V40.28a2.94,2.94,0,0,0-2.93-2.93H68.13Z"/>
    </g>
  </g>
</svg>
